<svg xmlns="http://www.w3.org/2000/svg" width="300" height="185"><defs/><path fill="#b8c0c7" d="M0 0h300v185H0z"/><g fill-opacity=".5"><path d="M65-18.2v221.5L-18.2 75.6z"/><path fill="#000016" d="M-18.2 178.7l98.5 24.6L11-18.2z"/><path fill="#fff" d="M67.4-18.2l250.8 91.4L68.6 203.3z"/><path fill="#fff" d="M293.6 177.5V-18.2L60.4 176.4z"/><path fill="#000237" d="M65 182.2L-18.2 4.1l84.4 3.5z"/><path d="M294.7 15.8l23.5 73.8-22.3 85.6z"/><path fill="#fff" d="M69.7 174L66.2 17 296 18.2z"/><path fill="#00204a" d="M66.2.6L64 182.2l-82-8.2z"/><path fill="#20230c" d="M156.4 178.7h161.8L235 203.3z"/><path fill="#565746" d="M90.8 203.3l-50.4-25.8 143 2.4z"/><path fill="#fff" d="M116.6 177.5l170-11.7 1.1-157z"/><path fill="#0a71c3" d="M11.1 81.4l-7 25.8 63.3-12.9z"/><path fill="#000a16" d="M65 88.5l-1-72.7L2.9 24z"/><path fill="#fefdfd" d="M140 7.6l136-1.2 18.7 164.1z"/><path fill="#c2b6a7" d="M52.1-18.2L139 5.3H-18z"/><path fill="#00173b" d="M1.8 88.5l60.9 90.2-55-1.2z"/></g></svg>