<?xml version="1.0" encoding="UTF-8"?>
<svg width="512px" height="504px" viewBox="0 0 512 504" version="1.1" xmlns="http://www.w3.org/2000/svg" xmlns:xlink="http://www.w3.org/1999/xlink">
    <!-- Generator: Sketch Beta 53.1 (72631) - https://sketchapp.com -->
    <title>icon</title>
    <desc>Created with Sketch Beta.</desc>
    <g id="icon" stroke="none" stroke-width="1" fill="none" fill-rule="evenodd">
        <g id="shape16-1" transform="translate(0.086780, 0.033748)" fill="#096DD9" fill-rule="nonzero">
            <circle id="Oval" cx="251.574237" cy="251.627269" r="251.661017"></circle>
        </g>
        <g id="shape19-3" transform="translate(34.620678, 34.567646)" fill="#40A9FF" fill-opacity="0.5" fill-rule="nonzero">
            <circle id="Oval" cx="217.040339" cy="217.093371" r="216.949153"></circle>
        </g>
        <g id="Group" transform="translate(88.500000, 102.000000)" fill="#FFFFFF" fill-rule="nonzero">
            <path d="M63.5344828,80.7692308 C74.7699493,80.7692308 80.862069,75.3901494 80.862069,63.4366353 C80.862069,56.5135584 75.8685283,46.1538462 63.5344828,46.1538462 C51.2004372,46.1538462 46.2068966,52.6784726 46.2068966,63.4366353 C46.2068966,74.194798 52.2990162,80.7692308 63.5344828,80.7692308" id="Fill-377"></path>
            <path d="M60.9330805,194.043985 C61.9561581,193.926921 63.0404839,193.867423 64.1879229,193.867423 C65.649303,193.867423 67.0083097,193.867423 68.2687957,193.867423 C81.3411499,191.540366 91.393762,179.932008 92.1853175,165.644745 C92.1853175,165.187683 92.1853175,164.722799 92.1853175,164.250266 C92.1853175,163.650264 92.1990353,163.062596 92.2268077,162.487613 C92.2198821,162.13578 92.2074902,161.783948 92.1853175,161.432116 L92.2948121,161.432116 C93.0892799,151.63557 98.26278,145.799362 109.627142,145.799362 C122.042503,145.799362 127.068966,145.799362 127.068966,145.799362 C127.068966,145.799362 127.068966,156.85927 127.068966,164.250266 C127.068966,177.011698 120.936682,182.70117 109.627142,182.70117 C108.546683,182.70117 107.513478,182.70117 106.528358,182.70117 C93.9990309,184.266626 83.9485014,194.281187 81.6297468,207.217371 C81.6297468,208.989446 81.6297468,210.737778 81.6297468,212.318327 C81.6297468,225.079759 75.4974629,230.769231 64.1879229,230.769231 C50.0132993,230.769231 46.7460989,223.803616 46.7460989,212.318327 C46.7460989,211.525513 46.7700497,210.754236 46.8187284,210.005298 C45.5356504,195.740703 34.9617732,184.377395 21.5459002,182.70117 L18.4471164,182.70117 C7.13757639,182.70117 1.00529245,177.011698 1.00529245,164.250266 C1.00529245,156.85927 1.00529245,145.799362 1.00529245,145.799362 C1.00529245,145.799362 6.03175469,145.799362 18.4471164,145.799362 C29.811478,145.799362 34.9849781,151.63557 35.7794459,161.432116 L35.939205,161.432116 C35.9101383,161.893342 35.8810715,162.354569 35.8617247,162.815795 C35.8799283,163.285725 35.8889404,163.763943 35.8889404,164.250266 L35.8889404,165.644745 C36.7031094,180.340171 47.31504,192.201443 60.9330805,194.043985 Z M59.9314416,94.4512241 C60.953447,94.3344359 62.0365572,94.2750798 63.1826304,94.2750798 C64.640698,94.2750798 65.9968557,94.2750798 67.2549301,94.2750798 C80.3314621,91.9435886 90.3882965,80.2981156 91.1800251,66.0470307 C91.1800251,65.5744956 91.1800251,65.0936698 91.1800251,64.6047501 C91.1800251,64.0102273 91.1934935,63.4278149 91.2207579,62.8578522 C91.2136988,62.5184925 91.2014118,62.1791328 91.1800251,61.8397731 L91.2852536,61.8397731 C92.0653013,52.0111764 97.2369418,46.1538462 108.621849,46.1538462 C121.037211,46.1538462 126.063673,46.1538462 126.063673,46.1538462 C126.063673,46.1538462 126.063673,57.213754 126.063673,64.6047501 C126.063673,77.3661822 119.931389,83.1088267 108.621849,83.1088267 C107.512894,83.1088267 106.453718,83.1088267 105.445219,83.1088267 C92.9521245,84.6741986 82.9384047,94.7059837 80.6244544,107.623328 C80.6244544,109.391996 80.6244544,111.139858 80.6244544,112.725984 C80.6244544,125.434243 74.4921704,131.176888 63.1826304,131.176888 C49.0080069,131.176888 45.7408064,124.211273 45.7408064,112.725984 C45.7408064,111.933088 45.7647622,111.161734 45.813451,110.412724 C44.5329231,96.1712364 33.9974186,84.7851972 20.6184537,83.1088267 L17.441824,83.1088267 C6.13228394,83.1088267 1.42108547e-14,77.3661822 1.42108547e-14,64.6047501 C1.42108547e-14,57.213754 1.42108547e-14,46.1538462 1.42108547e-14,46.1538462 C1.42108547e-14,46.1538462 5.02646224,46.1538462 17.441824,46.1538462 C28.8267313,46.1538462 33.9983718,52.0111764 34.7784195,61.8397731 L34.9339126,61.8397731 C34.9053767,62.2925758 34.8768407,62.7453785 34.8575019,63.1981811 C34.8749889,63.6591349 34.883648,64.1280495 34.883648,64.6047501 L34.883648,66.0470307 C35.6978898,80.7033528 46.3116456,92.6037724 59.9314416,94.4512241 Z" id="Combined-Shape"></path>
            <path d="M186.44457,260.669186 L186.44457,287.890291 C186.44457,294.566156 180.999683,300 174.373358,300 L163.175384,300 C156.549059,300 151.155539,294.566156 151.155539,287.890291 L151.155539,260.100062 C151.155539,259.759164 151.169603,259.42137 151.197177,259.087252 C150.260775,244.795392 139.210347,233.302578 125.110445,231.636996 L121.920493,231.636996 C110.278218,231.636996 103.965517,226.047899 103.965517,213.679436 C103.965517,206.486062 103.965517,195.721876 103.965517,195.721876 C103.965517,195.721876 109.139862,195.721876 121.920493,195.721876 C133.619202,195.721876 138.944911,201.402035 139.762752,210.936639 L139.875468,210.936639 C139.856943,211.214562 139.838417,211.492486 139.822266,211.770409 C139.857895,212.391498 139.875468,213.027997 139.875468,213.679436 L139.875468,215.762364 C141.126752,230.790679 153.572064,242.599631 168.850827,242.912332 C184.327851,242.594592 196.925577,230.407058 197.828127,215.033283 C197.828127,214.589519 197.828127,214.138182 197.828127,213.679436 C197.828127,213.206117 197.837404,212.740685 197.856143,212.28332 C197.836227,211.834426 197.806305,211.385532 197.776383,210.936639 L197.940843,210.936639 C198.758684,201.402035 204.084393,195.721876 215.783102,195.721876 C228.563733,195.721876 233.738078,195.721876 233.738078,195.721876 C233.738078,195.721876 233.738078,206.486062 233.738078,213.679436 C233.738078,226.047899 227.425377,231.636996 215.783102,231.636996 C214.670856,231.636996 213.607253,231.636996 212.59315,231.636996 C197.976613,233.363607 186.637115,245.650804 186.44457,260.669186 Z M165.659691,46.954295 C166.71191,46.8405941 167.827051,46.782807 169.007028,46.782807 C170.503015,46.782807 171.894788,46.782807 173.186249,46.782807 C186.621019,44.513473 197.011522,33.1777436 197.828127,19.3061889 C197.828127,18.8641049 197.828127,18.4145077 197.828127,17.9575598 C197.828127,17.4842407 197.837404,17.0188085 197.856143,16.5614438 C197.836227,16.11255 197.806305,15.6636562 197.776383,15.2147625 L197.940843,15.2147625 C198.758684,5.68015871 204.084393,-9.59232693e-14 215.783102,-9.59232693e-14 C228.563733,-9.59232693e-14 233.738078,-9.59232693e-14 233.738078,-9.59232693e-14 C233.738078,-9.59232693e-14 233.738078,10.7124348 233.738078,17.9575598 C233.738078,30.3260231 227.425377,35.9151195 215.783102,35.9151195 C214.641521,35.9151195 213.551183,35.9151195 212.513014,35.9151195 C199.652363,37.4386362 189.344032,47.2021893 186.962003,59.7741473 C186.962003,61.499406 186.962003,63.2015869 186.962003,64.7403667 C186.962003,77.1088301 180.649303,82.6979265 169.007028,82.6979265 C154.415376,82.6979265 151.052052,75.9185595 151.052052,64.7403667 C151.052052,63.9686721 151.076713,63.217942 151.126834,62.4889596 C149.808632,48.6282638 138.963165,37.5466669 125.190581,35.9151195 L121.920493,35.9151195 C110.278218,35.9151195 103.965517,30.3260231 103.965517,17.9575598 C103.965517,10.7124348 103.965517,-9.59232693e-14 103.965517,-9.59232693e-14 C103.965517,-9.59232693e-14 109.139862,-9.59232693e-14 121.920493,-9.59232693e-14 C133.619202,-9.59232693e-14 138.944911,5.68015871 139.762752,15.2147625 L139.875468,15.2147625 C139.856943,15.4926859 139.838417,15.7706094 139.822266,16.0485329 C139.857895,16.6696214 139.875468,17.3061207 139.875468,17.9575598 L139.875468,20.0333233 C141.0384,33.9643607 151.870372,45.1869273 165.659696,46.9542957 Z M165.65593,143.366615 C166.709253,143.252645 167.825645,143.19472 169.007028,143.19472 C170.506417,143.19472 171.901117,143.19472 173.195057,143.19472 C186.625559,140.929703 197.0117,129.630101 197.828127,115.72332 C197.828127,115.279556 197.828127,114.828219 197.828127,114.369473 C197.828127,113.896154 197.837404,113.430722 197.856143,112.973357 C197.836227,112.524463 197.806305,112.075569 197.776383,111.626676 L197.940843,111.626676 C198.758684,102.092072 204.084393,96.4119131 215.783102,96.4119131 C228.563733,96.4119131 233.738078,96.4119131 233.738078,96.4119131 C233.738078,96.4119131 233.738078,107.176099 233.738078,114.369473 C233.738078,126.789687 227.425377,132.327033 215.783102,132.327033 C214.810037,132.327033 213.874202,132.327033 212.976173,132.327033 C199.900411,133.663303 189.37256,143.473615 186.962003,156.187782 C186.962003,157.912451 186.962003,159.614012 186.962003,161.15228 C186.962003,173.572494 180.649303,179.10984 169.007028,179.10984 C154.415376,179.10984 151.052052,172.330473 151.052052,161.15228 C151.052052,160.380666 151.076708,159.630012 151.126818,158.901102 C149.793803,144.889942 138.719342,133.756929 124.727422,132.327033 L121.920493,132.327033 C110.278218,132.327033 103.965517,126.789687 103.965517,114.369473 C103.965517,107.176099 103.965517,96.4119131 103.965517,96.4119131 C103.965517,96.4119131 109.139862,96.4119131 121.920493,96.4119131 C133.619202,96.4119131 138.944911,102.092072 139.762752,111.626676 L139.875468,111.626676 C139.856943,111.904599 139.838417,112.182522 139.822266,112.460446 C139.857895,113.081534 139.875468,113.718034 139.875468,114.369473 L139.875468,116.452401 C141.038295,130.418312 151.868402,141.603948 165.655935,143.366615 Z M266.918348,192.322906 C267.971525,192.208971 269.087753,192.151065 270.26895,192.151065 C271.787747,192.151065 273.199129,192.151065 274.507176,192.151065 C287.928333,189.886231 298.275245,178.58828 299.090049,164.683053 C299.090049,164.238198 299.090049,163.785731 299.090049,163.325817 C299.090049,162.741858 299.10417,162.169904 299.13276,161.610294 C299.125631,161.26787 299.112874,160.925445 299.090049,160.58302 L299.202765,160.58302 C300.020607,151.048416 305.346315,145.368258 317.045025,145.368258 C329.825655,145.368258 335,145.368258 335,145.368258 C335,145.368258 335,156.132443 335,163.325817 C335,175.746032 328.6873,181.283377 317.045025,181.283377 C315.932779,181.283377 314.869175,181.283377 313.855072,181.283377 C300.957123,182.806976 290.6109,192.553766 288.223926,205.144059 C288.223926,206.868751 288.223926,208.570336 288.223926,210.108624 C288.223926,222.528839 281.911225,228.066184 270.26895,228.066184 C255.677299,228.066184 252.313975,221.286817 252.313975,210.108624 C252.313975,209.337009 252.33863,208.586354 252.388741,207.857442 C251.067914,193.974257 240.182945,182.914783 226.372367,181.283377 L223.182415,181.283377 C211.54014,181.283377 205.227439,175.746032 205.227439,163.325817 C205.227439,156.132443 205.227439,145.368258 205.227439,145.368258 C205.227439,145.368258 210.401784,145.368258 223.182415,145.368258 C234.881125,145.368258 240.206833,151.048416 241.024674,160.58302 L241.189134,160.58302 C241.138916,160.959706 241.113067,161.336392 241.099761,161.713077 C241.124943,162.239888 241.13739,162.777562 241.13739,163.325817 L241.13739,164.68301 C241.975513,178.985508 252.899654,190.52963 266.918348,192.322906 Z M266.922109,95.3930771 C267.974182,95.2794116 269.089159,95.2216425 270.26895,95.2216425 C271.784342,95.2216425 273.192799,95.2216425 274.498375,95.2216425 C287.923808,92.9524936 298.275067,81.6184202 299.090049,67.7484029 C299.090049,67.2884891 299.090049,66.8205058 299.090049,66.3446444 C299.090049,65.766018 299.103914,65.1991783 299.13198,64.6444554 C299.124713,64.3141696 299.112065,63.9838838 299.090049,63.653598 L299.198373,63.653598 C300.001371,54.0878003 305.325165,48.3870846 317.045025,48.3870846 C329.825655,48.3870846 335,48.3870846 335,48.3870846 C335,48.3870846 335,59.1512703 335,66.3446444 C335,78.7648586 328.6873,84.3539551 317.045025,84.3539551 C315.903444,84.3539551 314.813105,84.3539551 313.774936,84.3539551 C300.914285,85.8774717 290.605954,95.6410248 288.223926,108.212983 C288.223926,109.934359 288.223926,111.635486 288.223926,113.179202 C288.223926,125.547666 281.911225,131.136762 270.26895,131.136762 C255.677299,131.136762 252.313975,124.357395 252.313975,113.179202 C252.313975,112.407508 252.338635,111.656778 252.388756,110.927795 C251.070554,97.0670994 240.225088,85.9855024 226.452503,84.3539551 L223.182415,84.3539551 C211.54014,84.3539551 205.227439,78.7648586 205.227439,66.3446444 C205.227439,59.1512703 205.227439,48.3870846 205.227439,48.3870846 C205.227439,48.3870846 210.401784,48.3870846 223.182415,48.3870846 C234.902275,48.3870846 240.226069,54.0878003 241.029066,63.653598 L241.189134,63.653598 C241.140221,64.0204986 241.114427,64.3873993 241.100824,64.7542999 C241.125293,65.2739512 241.13739,65.8041558 241.13739,66.3446444 L241.13739,67.748361 C241.975588,82.0127993 252.901608,93.5950229 266.922109,95.3930771 Z M270.26895,84.3539551 C258.626675,84.3539551 252.313975,77.5228372 252.313975,66.3446444 C252.313975,55.1664516 257.488319,48.3870846 270.26895,48.3870846 C283.049581,48.3870846 288.223926,59.1512703 288.223926,66.3446444 C288.223926,78.7648586 281.911225,84.3539551 270.26895,84.3539551 Z M270.26895,181.283377 C258.626675,181.283377 252.313975,174.50401 252.313975,163.325817 C252.313975,152.147625 257.488319,145.368258 270.26895,145.368258 C283.049581,145.368258 288.223926,156.132443 288.223926,163.325817 C288.223926,175.746032 281.911225,181.283377 270.26895,181.283377 Z M169.007028,132.327033 C157.364753,132.327033 151.052052,125.547666 151.052052,114.369473 C151.052052,103.19128 156.226397,96.4119131 169.007028,96.4119131 C181.787659,96.4119131 186.962003,107.176099 186.962003,114.369473 C186.962003,126.789687 180.649303,132.327033 169.007028,132.327033 Z M169.007028,231.636996 C157.364753,231.636996 151.052052,224.857629 151.052052,213.679436 C151.052052,202.501243 156.226397,195.721876 169.007028,195.721876 C181.787659,195.721876 186.962003,206.486062 186.962003,213.679436 C186.962003,226.047899 180.649303,231.636996 169.007028,231.636996 Z M169.007028,35.9151195 C157.364753,35.9151195 151.052052,29.1357525 151.052052,17.9575598 C151.052052,6.77936694 156.226397,-9.59232693e-14 169.007028,-9.59232693e-14 C181.787659,-9.59232693e-14 186.962003,10.7124348 186.962003,17.9575598 C186.962003,30.3260231 180.649303,35.9151195 169.007028,35.9151195 Z" id="Combined-Shape" opacity="0.786225818"></path>
            <path d="M63.5344828,173.076923 C74.7699493,173.076923 80.862069,167.739969 80.862069,155.769231 C80.862069,148.836178 75.8685283,138.461538 63.5344828,138.461538 C51.2004372,138.461538 46.2068966,144.995566 46.2068966,155.769231 C46.2068966,166.542895 52.2990162,173.076923 63.5344828,173.076923" id="Fill-395"></path>
        </g>
    </g>
</svg>